<?xml version="1.0" encoding="UTF-8" standalone="no"?>
<svg
   xmlns:dc="http://purl.org/dc/elements/1.1/"
   xmlns:cc="http://creativecommons.org/ns#"
   xmlns:rdf="http://www.w3.org/1999/02/22-rdf-syntax-ns#"
   xmlns:svg="http://www.w3.org/2000/svg"
   xmlns="http://www.w3.org/2000/svg"
   xmlns:sodipodi="http://sodipodi.sourceforge.net/DTD/sodipodi-0.dtd"
   xmlns:inkscape="http://www.inkscape.org/namespaces/inkscape"
   inkscape:export-ydpi="562.5"
   inkscape:export-xdpi="562.5"
   inkscape:export-filename="/Users/leo/Documents/Projects/OrchardNest/Public/images/wordmark.png"
   sodipodi:docname="wordmark.svg"
   inkscape:version="1.0 (4035a4f, 2020-05-01)"
   id="svg8"
   version="1.1"
   viewBox="0 0 130.60838 18.288"
   height="18.288mm"
   width="130.60838mm">
  <defs
     id="defs2" />
  <sodipodi:namedview
     inkscape:window-maximized="0"
     inkscape:window-y="25"
     inkscape:window-x="0"
     inkscape:window-height="666"
     inkscape:window-width="1252"
     showgrid="false"
     inkscape:document-rotation="0"
     inkscape:current-layer="text12"
     inkscape:document-units="mm"
     inkscape:cy="407.776"
     inkscape:cx="312.82287"
     inkscape:zoom="0.35"
     inkscape:pageshadow="2"
     inkscape:pageopacity="0.0"
     borderopacity="1.0"
     bordercolor="#666666"
     pagecolor="#ffffff"
     id="base" />
  <metadata
     id="metadata5">
    <rdf:RDF>
      <cc:Work
         rdf:about="">
        <dc:format>image/svg+xml</dc:format>
        <dc:type
           rdf:resource="http://purl.org/dc/dcmitype/StillImage" />
        <dc:title></dc:title>
      </cc:Work>
    </rdf:RDF>
  </metadata>
  <g
     transform="translate(-23.065617,-40.275932)"
     id="layer1"
     inkscape:groupmode="layer"
     inkscape:label="Layer 1">
    <g
       style="font-style:normal;font-weight:normal;font-size:25.4px;line-height:1;font-family:sans-serif;fill:#000000;fill-opacity:1;stroke:none;stroke-width:0.264583"
       id="text12"
       aria-label="OrchardNest">
      <path
         id="path873"
         style="font-style:normal;font-variant:normal;font-weight:300;font-stretch:normal;font-size:25.4px;font-family:Catamaran;-inkscape-font-specification:'Catamaran Light';fill:#606c76;fill-opacity:1;stroke-width:0.264583"
         d="m 30.990417,58.563932 q -2.286,0 -4.0894,-1.143 -1.778,-1.143 -2.8194,-3.1496 -1.016,-2.032 -1.016,-4.6228 0,-2.5908 1.0414,-4.6228 1.0414,-2.0574 2.8702,-3.2512 1.8288,-1.1938 4.1656,-1.2446 2.3114,0 4.0894,1.143 1.8034,1.143 2.8194,3.175 1.0414,2.0066 1.0414,4.5974 0,2.5908 -1.0414,4.6482 -1.0414,2.0574 -2.8702,3.2512 -1.8288,1.1684 -4.191,1.2192 z m -0.0508,-1.397 q 1.8796,0 3.3274,-0.9906 1.4478,-0.9906 2.2606,-2.7178 0.8382,-1.7526 0.8382,-3.9878 0,-2.1844 -0.8128,-3.8862 -0.7874,-1.7018 -2.1844,-2.667 -1.397,-0.9652 -3.2004,-0.9652 -1.8542,0 -3.3274,0.9906 -1.4478,0.9906 -2.286,2.7178 -0.8128,1.7272 -0.8128,3.9624 0,2.1844 0.7874,3.8862 0.8128,1.7018 2.2098,2.6924 1.397,0.9652 3.2004,0.9652 z" />
      <path
         id="path875"
         style="font-style:normal;font-variant:normal;font-weight:300;font-stretch:normal;font-size:25.4px;font-family:Catamaran;-inkscape-font-specification:'Catamaran Light';fill:#606c76;fill-opacity:1;stroke-width:0.264583"
         d="m 43.454276,58.208332 v -8.7884 q 0.4826,-0.5334 1.1938,-1.0414 0.736599,-0.5334 1.574799,-0.889 0.8636,-0.3556 1.6256,-0.3556 l -0.4318,-1.2446 q -0.635,0 -1.4224,0.3302 -0.762,0.3302 -1.473199,0.7874 -0.6858,0.4572 -1.143,0.8382 l -0.4572,-1.9558 h -1.0414 v 12.319 z" />
      <path
         id="path877"
         style="font-style:normal;font-variant:normal;font-weight:300;font-stretch:normal;font-size:25.4px;font-family:Catamaran;-inkscape-font-specification:'Catamaran Light';fill:#606c76;fill-opacity:1;stroke-width:0.264583"
         d="m 58.149365,56.354132 q -0.6604,0.3302 -1.3716,0.6096 -0.6858,0.254 -2.032,0.254 -1.3716,0 -2.3114,-0.6858 -0.9144,-0.6858 -1.3716,-1.8796 -0.4572,-1.1938 -0.4572,-2.6924 0.0254,-1.4478 0.508,-2.5908 0.508,-1.143 1.4478,-1.8034 0.9652,-0.6858 2.3114,-0.6858 1.3208,0 2.032,0.2794 0.7366,0.2794 1.3716,0.5842 l 0.508,-1.1176 q -0.4826,-0.3302 -1.1938,-0.5588 -0.7112,-0.2286 -1.4224,-0.3556 -0.7112,-0.1524 -1.2192,-0.1524 -1.8034,0 -3.1496,0.8382 -1.3208,0.8382 -2.0574,2.286 -0.7112,1.4478 -0.7366,3.302 0,1.905 0.6858,3.4036 0.6858,1.4732 1.9812,2.3114 1.2954,0.8382 3.0988,0.8382 0.5334,0 1.2446,-0.127 0.7112,-0.127 1.4224,-0.3556 0.7112,-0.254 1.2192,-0.5588 z" />
      <path
         id="path879"
         style="font-style:normal;font-variant:normal;font-weight:300;font-stretch:normal;font-size:25.4px;font-family:Catamaran;-inkscape-font-specification:'Catamaran Light';fill:#606c76;fill-opacity:1;stroke-width:0.264583"
         d="m 63.055932,49.419932 q 0.5842,-0.7366 1.3462,-1.2954 0.7874,-0.5588 1.5748,-0.889 0.8128,-0.3302 1.4478,-0.3302 1.3462,0 1.8542,0.889 0.5334,0.889 0.5334,2.159 v 8.2296 h 1.5748 v -8.5344 q 0,-1.1938 -0.4064,-2.1082 -0.381,-0.9144 -1.2192,-1.4478 -0.8382,-0.5334 -2.159,-0.5334 -0.762,0 -1.6256,0.3048 -0.8636,0.2794 -1.651,0.7874 -0.762,0.508 -1.2954,1.1176 z m 0,8.7884 v -17.9324 l -1.5748,0.254 v 17.6784 z" />
      <path
         id="path881"
         style="font-style:normal;font-variant:normal;font-weight:300;font-stretch:normal;font-size:25.4px;font-family:Catamaran;-inkscape-font-specification:'Catamaran Light';fill:#606c76;fill-opacity:1;stroke-width:0.264583"
         d="m 75.791253,54.753932 q 0,-1.0668 0.7112,-1.8542 0.7112,-0.7874 2.0828,-0.7874 h 3.4798 v 3.1242 q -0.635,0.7874 -1.6002,1.397 -0.9398,0.6096 -2.1336,0.6096 -0.9144,0 -1.4732,-0.381 -0.5588,-0.381 -0.8128,-0.9652 -0.254,-0.5842 -0.254,-1.143 z m -0.2032,-7.0104 q 0.6604,-0.3048 1.4224,-0.5842 0.762,-0.2794 2.1082,-0.2794 1.4986,0 2.2098,0.8382 0.7366,0.8382 0.7366,2.1082 v 1.2446 h -3.429 q -1.9304,-0.0254 -3.175,0.9652 -1.2192,0.9652 -1.2192,2.7178 0,1.6002 1.016,2.6924 1.0414,1.0922 3.1242,1.0922 1.0922,0 2.1336,-0.508 1.0414,-0.5334 1.6256,-1.143 l 0.2032,1.3208 h 1.2954 v -8.636 q 0,-1.2192 -0.5588,-2.1082 -0.5588,-0.9144 -1.6002,-1.397 -1.016,-0.508 -2.4384,-0.508 -0.508,0 -1.27,0.1524 -0.7366,0.127 -1.4732,0.3556 -0.7112,0.2286 -1.1938,0.5588 z" />
      <path
         id="path883"
         style="font-style:normal;font-variant:normal;font-weight:300;font-stretch:normal;font-size:25.4px;font-family:Catamaran;-inkscape-font-specification:'Catamaran Light';fill:#606c76;fill-opacity:1;stroke-width:0.264583"
         d="m 88.40037,58.208332 v -8.7884 q 0.4826,-0.5334 1.1938,-1.0414 0.7366,-0.5334 1.5748,-0.889 0.8636,-0.3556 1.6256,-0.3556 l -0.4318,-1.2446 q -0.635,0 -1.4224,0.3302 -0.762,0.3302 -1.4732,0.7874 -0.6858,0.4572 -1.143,0.8382 l -0.4572,-1.9558 h -1.0414 v 12.319 z" />
      <path
         id="path885"
         style="font-style:normal;font-variant:normal;font-weight:300;font-stretch:normal;font-size:25.4px;font-family:Catamaran;-inkscape-font-specification:'Catamaran Light';fill:#606c76;fill-opacity:1;stroke-width:0.264583"
         d="m 102.66366,56.354132 0.5588,1.8542 h 1.0414 v -17.907 l -1.6002,0.2286 z m 0.4318,-0.9144 q -0.6604,0.762 -1.4986,1.27 -0.8382,0.508 -2.057404,0.508 -1.3716,0 -2.2606,-0.6604 -0.889,-0.6858 -1.3208,-1.8542 -0.4064,-1.1938 -0.4064,-2.6924 0.0254,-1.4478 0.4572,-2.5908 0.4318,-1.1684 1.3208,-1.8542 0.9144,-0.6858 2.2606,-0.6858 1.320804,0 2.108204,0.5334 0.7874,0.508 1.4224,1.0922 l 0.508,-1.016 q -0.4826,-0.4572 -1.0922,-0.889 -0.6096,-0.4572 -1.3208,-0.7366 -0.7112,-0.3048 -1.549404,-0.3048 -1.8034,0 -3.0988,0.8636 -1.27,0.8382 -1.9304,2.3114 -0.6604,1.4478 -0.6858,3.302 0,1.905 0.635,3.3782 0.6604,1.4732 1.905,2.3114 1.27,0.8128 3.0734,0.8128 0.787404,0 1.524004,-0.254 0.7366,-0.2286 1.3716,-0.6604 0.635,-0.4572 1.143,-1.0414 z" />
      <path
         id="path887"
         style="font-style:normal;font-variant:normal;font-weight:300;font-stretch:normal;font-size:25.4px;font-family:Catamaran;-inkscape-font-specification:'Catamaran Light';fill:#606c76;fill-opacity:1;stroke-width:0.264583"
         d="m 110.14713,58.208332 v -14.224 l 0.3556,0.7366 9.6012,13.4874 h 1.0414 v -17.272 h -1.6002 v 13.9954 l -0.8636,-1.4986 -9.0678,-12.4968 h -1.0414 v 17.272 z" />
      <path
         id="path889"
         style="font-style:normal;font-variant:normal;font-weight:300;font-stretch:normal;font-size:25.4px;font-family:Catamaran;-inkscape-font-specification:'Catamaran Light';fill:#606c76;fill-opacity:1;stroke-width:0.264583"
         d="m 135.20542,52.137732 v -0.127 q 0,-1.8542 -0.5588,-3.302 -0.5334,-1.4732 -1.6764,-2.3114 -1.1176,-0.8382 -2.921,-0.8382 -1.8034,0 -3.048,0.8382 -1.2446,0.8382 -1.8796,2.286 -0.635,1.4478 -0.6604,3.302 0,1.905 0.6604,3.4036 0.6858,1.4732 2.0574,2.3114 1.397,0.8382 3.5306,0.8382 0.9652,0 1.7018,-0.1778 0.762,-0.1524 1.397,-0.4064 0.635,-0.2794 1.2192,-0.5842 l -0.5334,-1.1684 q -0.9398,0.4826 -1.8796,0.7874 -0.9144,0.2794 -1.9812,0.2794 -1.651,0 -2.667,-0.6604 -0.9906,-0.6858 -1.4478,-1.8288 -0.4318,-1.1684 -0.4572,-2.6416 z m -9.0932,-1.0922 q 0.127,-1.2192 0.5588,-2.159 0.4572,-0.9398 1.27,-1.4732 0.8128,-0.5334 2.032,-0.5334 1.2192,0 1.9812,0.5334 0.762,0.5334 1.143,1.4732 0.4064,0.9398 0.508,2.159 z" />
      <path
         id="path891"
         style="font-style:normal;font-variant:normal;font-weight:300;font-stretch:normal;font-size:25.4px;font-family:Catamaran;-inkscape-font-specification:'Catamaran Light';fill:#606c76;fill-opacity:1;stroke-width:0.264583"
         d="m 137.11519,57.573332 q 0.4826,0.3048 1.1684,0.5334 0.7112,0.2032 1.4224,0.3048 0.7366,0.127 1.2446,0.127 2.3622,0 3.6068,-0.9144 1.27,-0.9398 1.27,-2.5654 0,-0.9906 -0.6096,-1.7018 -0.6096,-0.7112 -1.5494,-1.2192 -0.9398,-0.5334 -1.9558,-0.889 -1.2954,-0.4318 -2.2352,-0.9652 -0.9398,-0.5588 -0.9652,-1.4224 0,-0.889 0.8382,-1.4478 0.8382,-0.5842 2.1336,-0.5842 1.143,0 1.9304,0.3048 0.8128,0.3048 1.3208,0.5588 l 0.508,-1.1176 q -0.4064,-0.3048 -1.0922,-0.5334 -0.6858,-0.2286 -1.397,-0.3556 -0.6858,-0.127 -1.2192,-0.127 -2.0828,0 -3.302,0.9144 -1.2192,0.889 -1.2192,2.4892 0,0.9652 0.5842,1.651 0.6096,0.6858 1.524,1.143 0.9144,0.4572 1.8796,0.7874 0.889,0.3048 1.651,0.6858 0.762,0.381 1.2192,0.8636 0.4826,0.4826 0.4826,1.0922 0,0.6858 -0.4318,1.1684 -0.4064,0.4572 -1.1684,0.6858 -0.7366,0.2286 -1.7526,0.2286 -0.635,0 -1.2446,-0.127 -0.6096,-0.127 -1.143,-0.3048 -0.5334,-0.2032 -0.9906,-0.4318 z" />
      <path
         id="path893"
         style="font-style:normal;font-variant:normal;font-weight:300;font-stretch:normal;font-size:25.4px;font-family:Catamaran;-inkscape-font-specification:'Catamaran Light';fill:#606c76;fill-opacity:1;stroke-width:0.264583"
         d="m 152.8358,46.143332 h -2.2352 v -3.7592 l -1.6002,0.5588 v 3.2004 h -1.8288 l 0.0254,1.1938 h 1.8034 v 7.9248 q 0,1.0668 0.381,1.8034 0.381,0.7112 1.0414,1.0922 0.6858,0.381 1.5748,0.381 0.3302,0 0.635,-0.0508 0.3048,-0.0254 0.5588,-0.1016 0.2794,-0.0762 0.4826,-0.1524 l -0.3048,-1.2954 q -0.127,0.0508 -0.4572,0.1524 -0.3048,0.0762 -0.5842,0.0762 -0.9398,0 -1.3462,-0.5842 -0.381,-0.5842 -0.381,-1.4986 v -7.747 h 2.7686 z" />
    </g>
  </g>
</svg>
