<?xml version="1.0" encoding="UTF-8" standalone="no"?>
<!DOCTYPE svg PUBLIC "-//W3C//DTD SVG 1.1//EN" "http://www.w3.org/Graphics/SVG/1.1/DTD/svg11.dtd">
<svg width="100%" height="100%" viewBox="0 0 508 561" version="1.1" xmlns="http://www.w3.org/2000/svg" xmlns:xlink="http://www.w3.org/1999/xlink" xml:space="preserve" xmlns:serif="http://www.serif.com/" style="fill-rule:evenodd;clip-rule:evenodd;stroke-linejoin:round;stroke-miterlimit:2;">
    <g transform="matrix(1,0,0,1,-94.4162,5.59552e-14)">
        <g>
            <g id="Background" transform="matrix(-0.525823,-0.394866,0.541136,-0.415982,344.424,575.561)">
                <path d="M512,61.47C512,27.544 484.456,0 450.53,0L61.47,0C27.544,0 0,27.544 0,61.47L0,450.53C0,484.456 27.544,512 61.47,512L450.53,512C484.456,512 512,484.456 512,450.53L512,61.47Z" style="fill-opacity:0.24;"/>
            </g>
            <g id="_60.Rss" transform="matrix(-0.525823,-0.394866,0.541136,-0.415982,344.424,569.301)">
                <path id="Background1" serif:id="Background" d="M512,61.47C512,27.544 484.456,0 450.53,0L61.47,0C27.544,0 0,27.544 0,61.47L0,450.53C0,484.456 27.544,512 61.47,512L450.53,512C484.456,512 512,484.456 512,450.53L512,61.47Z" style="fill:rgb(255,85,51);"/>
                <g id="Icon" transform="matrix(1.26415,0,0,1.26415,-67.6211,-67.6211)">
                    <path d="M161.246,390.737C182.752,390.113 200.102,372.251 200.102,350.737C200.102,329.222 182.752,311.361 161.246,310.737C139.741,311.361 122.39,329.222 122.39,350.737C122.39,372.251 139.741,390.113 161.246,390.737Z" style="fill:white;fill-rule:nonzero;"/>
                    <path d="M248.623,382.855C248.623,385.516 248.421,388.109 248.219,390.737L295.613,390.737C295.613,388.109 296.017,385.516 296.017,382.855C295.505,291.506 220.494,216.495 129.145,215.983C126.484,215.983 123.891,216.286 121.263,216.387L121.263,263.781C123.891,263.579 126.484,263.377 129.145,263.377C194.509,263.851 248.149,317.491 248.623,382.855Z" style="fill:white;fill-rule:nonzero;"/>
                    <path d="M129.145,121.263C126.484,121.263 123.924,121.6 121.263,121.667L121.263,169.027C123.891,169.027 126.484,168.623 129.145,168.623C246.468,169.154 342.846,265.532 343.377,382.855C343.377,385.516 343.074,388.109 342.973,390.737L390.333,390.737C390.333,388.076 390.737,385.516 390.737,382.855C390.332,239.503 272.497,121.668 129.145,121.263Z" style="fill:white;fill-rule:nonzero;"/>
                </g>
            </g>
            <g id="Background2" serif:id="Background" transform="matrix(-0.525823,-0.394866,0.541136,-0.415982,344.424,491.561)">
                <path d="M512,61.47C512,27.544 484.456,0 450.53,0L61.47,0C27.544,0 0,27.544 0,61.47L0,450.53C0,484.456 27.544,512 61.47,512L450.53,512C484.456,512 512,484.456 512,450.53L512,61.47Z" style="fill-opacity:0.24;"/>
            </g>
            <g id="_60.Rss1" serif:id="_60.Rss" transform="matrix(-0.525823,-0.394866,0.541136,-0.415982,344.424,484.931)">
                <path id="Background3" serif:id="Background" d="M512,61.47C512,27.544 484.456,0 450.53,0L61.47,0C27.544,0 0,27.544 0,61.47L0,450.53C0,484.456 27.544,512 61.47,512L450.53,512C484.456,512 512,484.456 512,450.53L512,61.47Z" style="fill:rgb(255,115,51);"/>
                <g id="Icon1" serif:id="Icon" transform="matrix(1.26415,0,0,1.26415,-67.6211,-67.6211)">
                    <path d="M161.246,390.737C182.752,390.113 200.102,372.251 200.102,350.737C200.102,329.222 182.752,311.361 161.246,310.737C139.741,311.361 122.39,329.222 122.39,350.737C122.39,372.251 139.741,390.113 161.246,390.737Z" style="fill:white;fill-rule:nonzero;"/>
                    <path d="M248.623,382.855C248.623,385.516 248.421,388.109 248.219,390.737L295.613,390.737C295.613,388.109 296.017,385.516 296.017,382.855C295.505,291.506 220.494,216.495 129.145,215.983C126.484,215.983 123.891,216.286 121.263,216.387L121.263,263.781C123.891,263.579 126.484,263.377 129.145,263.377C194.509,263.851 248.149,317.491 248.623,382.855Z" style="fill:white;fill-rule:nonzero;"/>
                    <path d="M129.145,121.263C126.484,121.263 123.924,121.6 121.263,121.667L121.263,169.027C123.891,169.027 126.484,168.623 129.145,168.623C246.468,169.154 342.846,265.532 343.377,382.855C343.377,385.516 343.074,388.109 342.973,390.737L390.333,390.737C390.333,388.076 390.737,385.516 390.737,382.855C390.332,239.503 272.497,121.668 129.145,121.263Z" style="fill:white;fill-rule:nonzero;"/>
                </g>
            </g>
            <g id="Background4" serif:id="Background" transform="matrix(-0.525823,-0.394866,0.541136,-0.415982,344.424,407.561)">
                <path d="M512,61.47C512,27.544 484.456,0 450.53,0L61.47,0C27.544,0 0,27.544 0,61.47L0,450.53C0,484.456 27.544,512 61.47,512L450.53,512C484.456,512 512,484.456 512,450.53L512,61.47Z" style="fill-opacity:0.24;"/>
            </g>
            <g id="_60.Rss2" serif:id="_60.Rss" transform="matrix(-0.525823,-0.394866,0.541136,-0.415982,344.424,400.561)">
                <path id="Background5" serif:id="Background" d="M512,61.47C512,27.544 484.456,0 450.53,0L61.47,0C27.544,0 0,27.544 0,61.47L0,450.53C0,484.456 27.544,512 61.47,512L450.53,512C484.456,512 512,484.456 512,450.53L512,61.47Z" style="fill:rgb(255,145,51);"/>
                <g id="Icon2" serif:id="Icon" transform="matrix(1.26415,0,0,1.26415,-67.6211,-67.6211)">
                    <path d="M161.246,390.737C182.752,390.113 200.102,372.251 200.102,350.737C200.102,329.222 182.752,311.361 161.246,310.737C139.741,311.361 122.39,329.222 122.39,350.737C122.39,372.251 139.741,390.113 161.246,390.737Z" style="fill:white;fill-rule:nonzero;"/>
                    <path d="M248.623,382.855C248.623,385.516 248.421,388.109 248.219,390.737L295.613,390.737C295.613,388.109 296.017,385.516 296.017,382.855C295.505,291.506 220.494,216.495 129.145,215.983C126.484,215.983 123.891,216.286 121.263,216.387L121.263,263.781C123.891,263.579 126.484,263.377 129.145,263.377C194.509,263.851 248.149,317.491 248.623,382.855Z" style="fill:white;fill-rule:nonzero;"/>
                    <path d="M129.145,121.263C126.484,121.263 123.924,121.6 121.263,121.667L121.263,169.027C123.891,169.027 126.484,168.623 129.145,168.623C246.468,169.154 342.846,265.532 343.377,382.855C343.377,385.516 343.074,388.109 342.973,390.737L390.333,390.737C390.333,388.076 390.737,385.516 390.737,382.855C390.332,239.503 272.497,121.668 129.145,121.263Z" style="fill:white;fill-rule:nonzero;"/>
                </g>
            </g>
        </g>
    </g>
</svg>
