<svg version="1" xmlns="http://www.w3.org/2000/svg" width="684" height="684" viewBox="0 0 513.000000 513.000000"><path d="M20.4 7.5c-5.4 2.7-8.4 6-10.2 11.4-.9 2.5-1.2 42-1.2 156.2C9 259.2 8.7 328 8.4 328s-1.9-.9-3.6-2.1c-1.6-1.2-3.2-1.9-3.4-1.6-.3.3 1.3 3.3 3.5 6.6l4.1 6v153.7l2.2 4.4c1.3 2.4 4 5.7 6.1 7.4 8 6.4 21.7 4.1 27.5-4.7l2.7-4 .5-32.1.5-32.1 9-.6c11-.7 13.3-1.2 26.2-5.1l10.2-3.1 9.3 6c30.5 19.8 60.5 33.3 94.3 42.3 27 7.2 52.6 10.4 83 10.4 40.2 0 65.2-6.3 106.5-26.9 20.9-10.4 27.4-12.9 30-11.3 1.1.7 2 1.5 2 1.8 0 .3-2.5 3-5.5 6-4.7 4.6-5.5 6-5.5 9.1 0 4.4 2.8 7.2 7.1 7.2 2.3 0 4.4-1.3 9.1-5.9 3.8-3.7 6.2-5.4 6.5-4.6.3.7 1.6 2.6 2.9 4.1 2.4 2.9 2.4 3.1 1.4 12.3-.6 5.1-1.7 11.9-2.4 15-.7 3.2-1 5.8-.6 5.8 1.1 0 12-7.8 17.8-12.8 2.9-2.4 7.8-7.5 10.8-11.2l5.4-6.7v-8.2c0-4.4.2-8.1.5-8.1 1.4 0 7.6 3.7 13.6 8.1 7.3 5.4 18.4 16.7 22.6 23 1.4 2.2 2.9 3.6 3.3 3.2.4-.4 1.5-3.1 2.3-5.8 10.4-33.2-1.2-75.5-32.1-116.7l-7.7-10.3 2.7-8.3c6.6-20 9.5-47.6 7.7-71.4-.5-7.8-1.4-16.4-2-19.1-1.6-8.4-1.3-9.4 2.7-10.7 8.5-2.8 19.5 1.3 23.5 8.8.9 1.9 2 3.6 2.3 4 .3.3.6-45.6.5-101.9-.1-56.3-.5-100.6-.9-98.4-.4 2.2-1.3 7.8-2 12.5-4 29.8-15.7 63.5-30.5 88.5l-6 10-.5 22-.5 22-2.9-7.5c-5.1-13.1-16.3-35.1-23.4-46.1l-6.9-10.6 5.9-10.5 5.9-10.5-2.2-6.4c-2.2-6.3-6.8-16.4-9.6-20.6l-1.5-2.2-5.4 4.5c-5.3 4.3-12.5 8.4-17.1 9.8-1.9.6-2.3.4-2.3-1.4 0-1.2.9-3.3 2-4.7 2.6-3.3 2.5-6.3-.1-9.7-3.1-4-8.2-3.6-12.1.8l-3.1 3.5L379.6 81c-16.3-14.9-33.1-28.3-48.9-39.2-14.9-10.3-15.3-10.5-14.2-8.7.5.8 2.6 3.6 4.6 6.4 9.4 12.5 34.9 62.2 34.9 67.9 0 1.2-.8 1.2-5.7.1-3.2-.7-6-1.2-6.2-.9-.8.8 8.9 14.4 15 20.8 5.7 6.1 6.3 7.3 8 14.4 5.5 23.6 7.4 45.4 5.8 67.2-.6 8.5-1.2 15.6-1.3 15.8-.2.1-2.3-1.3-4.6-3.3-6-5-11.3-7.9-20.2-10.9-8.4-2.9-27.3-6.4-28.4-5.4-.3.4.8 2.8 2.5 5.4 3.6 5.5 4.7 10 3.5 14.8l-.9 3.4-10.5-6.6c-5.8-3.6-14.8-8.5-20-10.9l-9.5-4.3-.6-25.7c-.4-14.2-1.2-28.4-1.7-31.6-2.5-13.6-14.5-26.7-30.2-33.2-3.5-1.5-6.7-1.8-14.5-1.7-17.5.3-29.2 5.3-39.4 16.9l-4.8 5.5-4.3-2.8c-2.3-1.6-7.2-3.8-10.9-5-5-1.7-8.8-4.1-15.5-9.6C149.2 109.7 124 87 124 86.1c0-.5 3-1.1 6.8-1.5 3.7-.3 8.9-1.2 11.6-1.9l5-1.3-7-4.6c-3.8-2.6-8.6-6.1-10.8-8-3.6-3.2-3.8-3.6-4-9.6l-.1-6.2h7.6c9.4 0 12.9-2.1 12.9-7.6 0-5.8-2.6-7.4-12.2-7.4h-8.3l.3-5.4c.4-6.6-1.8-9.6-7.2-9.6-3.9 0-7.6 3.7-7.6 7.4 0 2.8-2.4 6.2-4.9 6.9-1.6.4-2.4-.5-4-4.3-2.6-6.1-5.1-16.3-5.1-21.3 0-4.5-.5-4.6-10.8-1.1-10.1 3.4-20 8.4-29.4 15l-7.7 5.3-.7-5.7C47.2 15.2 42.5 9 34.1 6.1 29 4.4 25.9 4.7 20.4 7.5zm50.5 66.4C83.5 80.3 101.2 85 112.4 85c2.8 0 5.6.4 6.2.8 1.7 1.1 30.4 40.9 30.4 42.1 0 .6-.6 1.1-1.2 1.1-3 0-13.7 6.1-18.5 10.4-2.9 2.6-6.9 7.4-8.9 10.7l-3.7 5.9-3.6-2.7c-2-1.5-12.4-9.8-23.3-18.5-21.8-17.5-20.6-15.9-28.4-36.7-3.6-9.6-9.4-30.6-9.4-34.2 0-1.6 1.1-1.1 6.7 2.7 3.6 2.5 9.1 5.8 12.2 7.3zm-10.2 104c4 5.3 9.5 12.1 12.2 15.1 4.2 4.5 4.9 5 4.1 2.7-1.6-4.4-1.1-11.8.9-16.3 3.3-7.4 12.4-12.2 20.5-11 3.8.6 5 1.5 9.5 7l5.1 6.4V206.5l-7.8 3.5c-8.7 3.9-23.8 12.7-29.5 17.3-5.2 4.1-6.2 2.9-6.2-8.1v-8.7l-4.5-.3c-2.5-.2-7.2.1-10.3.6l-5.7.9.1-24.6v-24.6l2.2 2.9c1.2 1.6 5.4 7.3 9.4 12.5zm3.8 85.2c2.2.6 7.2 2.5 11 4.2 5.8 2.5 8.8 3.1 17.7 3.7 8.7.5 11.3 1 13.5 2.7 1.6 1.1 2.9 2.7 3.1 3.5.2 1.2-1.1 1.2-9.5.1-6.7-.9-14.8-1.1-25.3-.7-13.2.5-16.1.4-19.5-1-7.6-3.2-9.8-7.8-5.2-10.9 4.2-2.7 8.3-3.2 14.2-1.6zM51.3 326c2.7 4.5 17.4 20 23 24.2 2.7 2 5.1 3.9 5.3 4.1.2.2-.4 2-1.4 3.9l-1.7 3.6-12-4.9c-6.6-2.8-13-5.4-14.2-5.9-2.2-.9-2.3-1.4-2.3-14.5 0-7.4.4-13.5.8-13.5s1.6 1.3 2.5 3zm66.2 47c4.4 1.6 7.6 2.9 7.2 2.9-2.4.2-17.6-4.3-17.1-5 .7-1.2.9-1.2 9.9 2.1z"/></svg>