<?xml version="1.0" encoding="iso-8859-1"?>
<!-- Generator: Adobe Illustrator 19.0.0, SVG Export Plug-In . SVG Version: 6.00 Build 0)  -->
<svg version="1.1" id="Capa_1" xmlns="http://www.w3.org/2000/svg" xmlns:xlink="http://www.w3.org/1999/xlink" x="0px" y="0px"
	 viewBox="0 0 512 512" style="enable-background:new 0 0 512 512;" xml:space="preserve">
<circle style="fill:#A479E2;" cx="256" cy="256" r="256"/>
<g>
	<path style="fill:#F2F2F2;" d="M298.719,508.446c-13.887,2.341-28.16,3.553-42.715,3.553c-13.354,0-26.467-1.024-39.267-2.988
		c-8.61-37.073-25.14-134.74-17.032-164.174c7.262-26.331,48.88-29.957,57.96-29.957c9.08,0,50.698,3.626,57.961,29.957
		C323.713,374.125,307.37,470.966,298.719,508.446z"/>
	<circle style="fill:#F2F2F2;" cx="256" cy="238.38" r="55.39"/>
	<path style="fill:#F2F2F2;" d="M256.003,104.572c-84.553,0-153.339,68.786-153.339,153.339c0,53.655,27.711,100.968,69.58,128.376
		c-0.846-14.838-0.773-28.4,0.69-39.111c-23.949-22.277-38.943-54.053-38.943-89.266c0-67.281,54.732-122.013,122.013-122.013
		c67.271,0,122.013,54.732,122.013,122.013c0,33.761-13.803,64.366-36.039,86.476c1.787,10.553,2.017,24.325,1.243,39.549
		c39.926-27.679,66.121-73.853,66.121-126.025C409.342,173.358,340.546,104.572,256.003,104.572z"/>
	<path style="fill:#F2F2F2;" d="M256.003,25.787c-128,0-232.124,104.124-232.124,232.124c0,102.985,67.427,190.527,160.455,220.808
		c-1.975-10.836-4.033-22.977-5.893-35.589C106.123,412.734,55.195,341.148,55.195,257.911
		c0-110.728,90.081-200.798,200.808-200.798c110.717,0,200.798,90.07,200.798,200.798c0,81.857-49.246,152.451-119.672,183.683
		c-1.849,12.706-3.918,24.973-5.914,35.934c91.199-31.326,156.912-117.938,156.912-219.617
		C488.127,129.911,383.993,25.787,256.003,25.787z"/>
</g>
<g>
</g>
<g>
</g>
<g>
</g>
<g>
</g>
<g>
</g>
<g>
</g>
<g>
</g>
<g>
</g>
<g>
</g>
<g>
</g>
<g>
</g>
<g>
</g>
<g>
</g>
<g>
</g>
<g>
</g>
</svg>
